#include "score.hpp"

const uint8_t score[2468] = {
0x4d, 0x54, 0x68, 0x64, 0x00, 0x00, 0x00, 0x06, 0x00, 0x00, 0x00, 0x01, 0x03, 0xc0, 0x4d, 0x54, 
0x72, 0x6b, 0x00, 0x00, 0x09, 0x8e, 0x00, 0xff, 0x51, 0x03, 0x05, 0x83, 0xe6, 0x00, 0xff, 0x59, 
0x02, 0x00, 0x00, 0x00, 0xff, 0x03, 0x02, 0xe7, 0x84, 0x00, 0xff, 0x58, 0x04, 0x04, 0x02, 0x18, 
0x08, 0x00, 0xb0, 0x00, 0x00, 0x00, 0xb0, 0x20, 0x00, 0x00, 0xc0, 0x00, 0x00, 0xff, 0x03, 0x03, 
0xe7, 0x84, 0x00, 0x00, 0xb0, 0x07, 0x7f, 0x00, 0xb0, 0x00, 0x00, 0x00, 0xb0, 0x20, 0x00, 0x00, 
0xb0, 0x07, 0x7f, 0x00, 0xb0, 0x0b, 0x7f, 0x9e, 0x00, 0x90, 0x2f, 0x64, 0x00, 0x90, 0x3d, 0x64, 
0x83, 0x60, 0x80, 0x3d, 0x00, 0x00, 0x90, 0x42, 0x64, 0x83, 0x60, 0x80, 0x42, 0x00, 0x00, 0x90, 
0x44, 0x64, 0x83, 0x60, 0x80, 0x44, 0x00, 0x00, 0x90, 0x3d, 0x64, 0x83, 0x60, 0x80, 0x3d, 0x00, 
0x00, 0x90, 0x42, 0x64, 0x83, 0x60, 0x80, 0x42, 0x00, 0x00, 0x90, 0x44, 0x64, 0x83, 0x60, 0x80, 
0x44, 0x00, 0x00, 0x90, 0x3d, 0x64, 0x83, 0x60, 0x80, 0x3d, 0x00, 0x00, 0x90, 0x42, 0x64, 0x83, 
0x60, 0x80, 0x42, 0x00, 0x00, 0x90, 0x44, 0x64, 0x83, 0x60, 0x80, 0x44, 0x00, 0x00, 0x90, 0x3d, 
0x64, 0x83, 0x60, 0x80, 0x3d, 0x00, 0x00, 0x90, 0x42, 0x64, 0x83, 0x60, 0x80, 0x42, 0x00, 0x00, 
0x90, 0x44, 0x64, 0x83, 0x60, 0x80, 0x44, 0x00, 0x00, 0x90, 0x3d, 0x64, 0x83, 0x60, 0x80, 0x3d, 
0x00, 0x00, 0x90, 0x42, 0x64, 0x83, 0x60, 0x80, 0x42, 0x00, 0x00, 0x90, 0x44, 0x64, 0x83, 0x60, 
0x80, 0x44, 0x00, 0x00, 0x90, 0x3d, 0x64, 0x83, 0x60, 0x80, 0x2f, 0x00, 0x00, 0x80, 0x3d, 0x00, 
0x00, 0x90, 0x31, 0x64, 0x00, 0x90, 0x3d, 0x64, 0x83, 0x60, 0x80, 0x3d, 0x00, 0x00, 0x90, 0x41, 
0x64, 0x83, 0x60, 0x80, 0x41, 0x00, 0x00, 0x90, 0x44, 0x64, 0x83, 0x60, 0x80, 0x44, 0x00, 0x00, 
0x90, 0x3d, 0x64, 0x83, 0x60, 0x80, 0x3d, 0x00, 0x00, 0x90, 0x41, 0x64, 0x83, 0x60, 0x80, 0x41, 
0x00, 0x00, 0x90, 0x44, 0x64, 0x83, 0x60, 0x80, 0x44, 0x00, 0x00, 0x90, 0x3d, 0x64, 0x83, 0x60, 
0x80, 0x3d, 0x00, 0x00, 0x90, 0x41, 0x64, 0x83, 0x60, 0x80, 0x41, 0x00, 0x00, 0x90, 0x44, 0x64, 
0x83, 0x60, 0x80, 0x44, 0x00, 0x00, 0x90, 0x3d, 0x64, 0x83, 0x60, 0x80, 0x3d, 0x00, 0x00, 0x90, 
0x41, 0x64, 0x83, 0x60, 0x80, 0x41, 0x00, 0x00, 0x90, 0x44, 0x64, 0x83, 0x60, 0x80, 0x44, 0x00, 
0x00, 0x90, 0x3d, 0x64, 0x83, 0x60, 0x80, 0x3d, 0x00, 0x00, 0x90, 0x41, 0x64, 0x83, 0x60, 0x80, 
0x41, 0x00, 0x00, 0x90, 0x44, 0x64, 0x83, 0x60, 0x80, 0x44, 0x00, 0x00, 0x90, 0x3d, 0x64, 0x83, 
0x60, 0x80, 0x31, 0x00, 0x00, 0x80, 0x3d, 0x00, 0x00, 0x90, 0x2f, 0x64, 0x00, 0x90, 0x42, 0x64, 
0x83, 0x60, 0x80, 0x42, 0x00, 0x00, 0x90, 0x44, 0x64, 0x83, 0x60, 0x80, 0x44, 0x00, 0x00, 0x90, 
0x49, 0x64, 0x83, 0x60, 0x80, 0x49, 0x00, 0x00, 0x90, 0x42, 0x64, 0x83, 0x60, 0x80, 0x42, 0x00, 
0x00, 0x90, 0x44, 0x64, 0x83, 0x60, 0x80, 0x44, 0x00, 0x00, 0x90, 0x49, 0x64, 0x83, 0x60, 0x80, 
0x49, 0x00, 0x00, 0x90, 0x42, 0x64, 0x83, 0x60, 0x80, 0x42, 0x00, 0x00, 0x90, 0x44, 0x64, 0x83, 
0x60, 0x80, 0x44, 0x00, 0x00, 0x90, 0x49, 0x64, 0x83, 0x60, 0x80, 0x49, 0x00, 0x00, 0x90, 0x42, 
0x64, 0x83, 0x60, 0x80, 0x42, 0x00, 0x00, 0x90, 0x44, 0x64, 0x83, 0x60, 0x80, 0x44, 0x00, 0x00, 
0x90, 0x49, 0x64, 0x83, 0x60, 0x80, 0x49, 0x00, 0x00, 0x90, 0x42, 0x64, 0x83, 0x60, 0x80, 0x42, 
0x00, 0x00, 0x90, 0x44, 0x64, 0x83, 0x60, 0x80, 0x44, 0x00, 0x00, 0x90, 0x49, 0x64, 0x83, 0x60, 
0x80, 0x49, 0x00, 0x00, 0x90, 0x42, 0x64, 0x83, 0x60, 0x80, 0x2f, 0x00, 0x00, 0x80, 0x42, 0x00, 
0x00, 0x90, 0x31, 0x64, 0x00, 0x90, 0x41, 0x64, 0x83, 0x60, 0x80, 0x41, 0x00, 0x00, 0x90, 0x44, 
0x64, 0x83, 0x60, 0x80, 0x44, 0x00, 0x00, 0x90, 0x49, 0x64, 0x83, 0x60, 0x80, 0x49, 0x00, 0x00, 
0x90, 0x41, 0x64, 0x83, 0x60, 0x80, 0x41, 0x00, 0x00, 0x90, 0x44, 0x64, 0x83, 0x60, 0x80, 0x44, 
0x00, 0x00, 0x90, 0x49, 0x64, 0x83, 0x60, 0x80, 0x49, 0x00, 0x00, 0x90, 0x41, 0x64, 0x83, 0x60, 
0x80, 0x41, 0x00, 0x00, 0x90, 0x44, 0x64, 0x83, 0x60, 0xff, 0x51, 0x03, 0x06, 0x33, 0x4d, 0x00, 
0x80, 0x44, 0x00, 0x00, 0x90, 0x49, 0x64, 0x83, 0x60, 0x80, 0x49, 0x00, 0x00, 0x90, 0x41, 0x64, 
0x83, 0x60, 0x80, 0x41, 0x00, 0x00, 0x90, 0x44, 0x64, 0x83, 0x60, 0x80, 0x44, 0x00, 0x00, 0x90, 
0x49, 0x64, 0x83, 0x60, 0xff, 0x51, 0x03, 0x06, 0x99, 0x30, 0x00, 0x80, 0x49, 0x00, 0x00, 0x90, 
0x41, 0x64, 0x83, 0x60, 0x80, 0x41, 0x00, 0x00, 0x90, 0x44, 0x64, 0x83, 0x60, 0x80, 0x44, 0x00, 
0x00, 0x90, 0x47, 0x64, 0x83, 0x60, 0x80, 0x47, 0x00, 0x00, 0x90, 0x49, 0x64, 0x83, 0x60, 0xff, 
0x58, 0x04, 0x01, 0x02, 0x18, 0x08, 0x00, 0xff, 0x51, 0x03, 0x05, 0x88, 0x6e, 0x00, 0x80, 0x31, 
0x00, 0x00, 0x80, 0x49, 0x00, 0x87, 0x40, 0xff, 0x58, 0x04, 0x04, 0x02, 0x18, 0x08, 0x00, 0x90, 
0x3f, 0x64, 0x00, 0x90, 0x4a, 0x64, 0x83, 0x60, 0x80, 0x3f, 0x00, 0x00, 0x80, 0x4a, 0x00, 0x00, 
0x90, 0x46, 0x64, 0x00, 0x90, 0x4a, 0x64, 0x83, 0x60, 0x80, 0x46, 0x00, 0x00, 0x80, 0x4a, 0x00, 
0x00, 0x90, 0x3f, 0x64, 0x00, 0x90, 0x48, 0x64, 0x83, 0x60, 0x80, 0x3f, 0x00, 0x00, 0x90, 0x46, 
0x64, 0x83, 0x60, 0x80, 0x46, 0x00, 0x00, 0x80, 0x48, 0x00, 0x00, 0x90, 0x3f, 0x64, 0x00, 0x90, 
0x46, 0x64, 0x83, 0x60, 0x80, 0x3f, 0x00, 0x00, 0x90, 0x46, 0x64, 0x83, 0x60, 0x80, 0x46, 0x00, 
0x00, 0x80, 0x46, 0x00, 0x00, 0x90, 0x3f, 0x64, 0x00, 0x90, 0x45, 0x64, 0x83, 0x60, 0x80, 0x3f, 
0x00, 0x00, 0x80, 0x45, 0x00, 0x00, 0x90, 0x41, 0x64, 0x00, 0x90, 0x4a, 0x64, 0x87, 0x40, 0x80, 
0x41, 0x00, 0x00, 0x80, 0x4a, 0x00, 0x00, 0x90, 0x48, 0x64, 0x00, 0x90, 0x4a, 0x64, 0x83, 0x60, 
0x80, 0x48, 0x00, 0x00, 0x80, 0x4a, 0x00, 0x00, 0x90, 0x41, 0x64, 0x00, 0x90, 0x48, 0x64, 0x83, 
0x60, 0x80, 0x41, 0x00, 0x00, 0x90, 0x48, 0x64, 0x83, 0x60, 0x80, 0x48, 0x00, 0x00, 0x80, 0x48, 
0x00, 0x00, 0x90, 0x41, 0x64, 0x00, 0x90, 0x46, 0x64, 0x83, 0x60, 0x80, 0x41, 0x00, 0x00, 0x80, 
0x46, 0x00, 0x00, 0x90, 0x48, 0x64, 0x00, 0x90, 0x45, 0x64, 0x83, 0x60, 0x80, 0x48, 0x00, 0x00, 
0x90, 0x41, 0x64, 0x83, 0x60, 0x80, 0x41, 0x00, 0x00, 0x90, 0x48, 0x64, 0x83, 0x60, 0x80, 0x48, 
0x00, 0x00, 0x80, 0x45, 0x00, 0x00, 0x90, 0x43, 0x64, 0x00, 0x90, 0x4a, 0x64, 0x83, 0x60, 0x80, 
0x43, 0x00, 0x00, 0x80, 0x4a, 0x00, 0x00, 0x90, 0x4a, 0x64, 0x00, 0x90, 0x4a, 0x64, 0x83, 0x60, 
0x80, 0x4a, 0x00, 0x00, 0x80, 0x4a, 0x00, 0x00, 0x90, 0x43, 0x64, 0x00, 0x90, 0x48, 0x64, 0x83, 
0x60, 0x80, 0x43, 0x00, 0x00, 0x90, 0x4a, 0x64, 0x83, 0x60, 0x80, 0x4a, 0x00, 0x00, 0x80, 0x48, 
0x00, 0x00, 0x90, 0x43, 0x64, 0x00, 0x90, 0x46, 0x64, 0x83, 0x60, 0x80, 0x43, 0x00, 0x00, 0x90, 
0x4a, 0x64, 0x83, 0x60, 0x80, 0x4a, 0x00, 0x00, 0x80, 0x46, 0x00, 0x00, 0x90, 0x43, 0x64, 0x00, 
0x90, 0x45, 0x64, 0x83, 0x60, 0x80, 0x43, 0x00, 0x00, 0x80, 0x45, 0x00, 0x00, 0x90, 0x4a, 0x64, 
0x00, 0x90, 0x4a, 0x64, 0x83, 0x60, 0x80, 0x4a, 0x00, 0x00, 0x90, 0x43, 0x64, 0x83, 0x60, 0x80, 
0x43, 0x00, 0x00, 0x80, 0x4a, 0x00, 0x00, 0x90, 0x4a, 0x64, 0x00, 0x90, 0x4a, 0x64, 0x83, 0x60, 
0x80, 0x4a, 0x00, 0x00, 0x80, 0x4a, 0x00, 0x00, 0x90, 0x43, 0x64, 0x00, 0x90, 0x4f, 0x64, 0x83, 
0x60, 0x80, 0x43, 0x00, 0x00, 0x90, 0x4a, 0x64, 0x83, 0x60, 0x80, 0x4a, 0x00, 0x00, 0x80, 0x4f, 
0x00, 0x00, 0x90, 0x43, 0x64, 0x00, 0x90, 0x51, 0x64, 0x83, 0x60, 0x80, 0x43, 0x00, 0x00, 0x90, 
0x4a, 0x64, 0x83, 0x60, 0x80, 0x4a, 0x00, 0x00, 0x80, 0x51, 0x00, 0x00, 0x90, 0x43, 0x64, 0x00, 
0x90, 0x52, 0x64, 0x83, 0x60, 0x80, 0x43, 0x00, 0x00, 0x80, 0x52, 0x00, 0x00, 0x90, 0x3f, 0x64, 
0x00, 0x90, 0x52, 0x64, 0x87, 0x40, 0x80, 0x3f, 0x00, 0x00, 0x80, 0x52, 0x00, 0x00, 0x90, 0x46, 
0x64, 0x00, 0x90, 0x52, 0x64, 0x83, 0x60, 0x80, 0x46, 0x00, 0x00, 0x80, 0x52, 0x00, 0x00, 0x90, 
0x3f, 0x64, 0x00, 0x90, 0x51, 0x64, 0x83, 0x60, 0x80, 0x3f, 0x00, 0x00, 0x90, 0x46, 0x64, 0x83, 
0x60, 0x80, 0x46, 0x00, 0x00, 0x80, 0x51, 0x00, 0x00, 0x90, 0x3f, 0x64, 0x00, 0x90, 0x4f, 0x64, 
0x83, 0x60, 0x80, 0x3f, 0x00, 0x00, 0x90, 0x46, 0x64, 0x83, 0x60, 0x80, 0x46, 0x00, 0x00, 0x80, 
0x4f, 0x00, 0x00, 0x90, 0x3f, 0x64, 0x00, 0x90, 0x4d, 0x64, 0x83, 0x60, 0x80, 0x3f, 0x00, 0x00, 
0x80, 0x4d, 0x00, 0x00, 0x90, 0x42, 0x64, 0x00, 0x90, 0x54, 0x64, 0x87, 0x40, 0x80, 0x42, 0x00, 
0x00, 0x80, 0x54, 0x00, 0x00, 0x90, 0x48, 0x64, 0x00, 0x90, 0x54, 0x64, 0x83, 0x60, 0x80, 0x48, 
0x00, 0x00, 0x80, 0x54, 0x00, 0x00, 0x90, 0x42, 0x64, 0x00, 0x90, 0x52, 0x64, 0x83, 0x60, 0x80, 
0x42, 0x00, 0x00, 0x90, 0x48, 0x64, 0x83, 0x60, 0x80, 0x48, 0x00, 0x00, 0x80, 0x52, 0x00, 0x00, 
0x90, 0x42, 0x64, 0x00, 0x90, 0x51, 0x64, 0x83, 0x60, 0x80, 0x42, 0x00, 0x00, 0x80, 0x51, 0x00, 
0x00, 0x90, 0x48, 0x64, 0x00, 0x90, 0x4e, 0x64, 0x83, 0x60, 0x80, 0x48, 0x00, 0x00, 0x90, 0x42, 
0x64, 0x83, 0x60, 0x80, 0x42, 0x00, 0x00, 0x80, 0x4e, 0x00, 0x00, 0x90, 0x48, 0x64, 0x00, 0x90, 
0x48, 0x64, 0x83, 0x60, 0x80, 0x48, 0x00, 0x00, 0x80, 0x48, 0x00, 0x00, 0x90, 0x43, 0x64, 0x00, 
0x90, 0x4a, 0x64, 0x83, 0x60, 0x80, 0x43, 0x00, 0x00, 0x80, 0x4a, 0x00, 0x00, 0x90, 0x4a, 0x64, 
0x00, 0x90, 0x4a, 0x64, 0x83, 0x60, 0x80, 0x4a, 0x00, 0x00, 0x80, 0x4a, 0x00, 0x00, 0x90, 0x43, 
0x64, 0x00, 0x90, 0x48, 0x64, 0x83, 0x60, 0x80, 0x43, 0x00, 0x00, 0x90, 0x4a, 0x64, 0x83, 0x60, 
0x80, 0x4a, 0x00, 0x00, 0x80, 0x48, 0x00, 0x00, 0x90, 0x43, 0x64, 0x00, 0x90, 0x46, 0x64, 0x83, 
0x60, 0x80, 0x43, 0x00, 0x00, 0x90, 0x4a, 0x64, 0x83, 0x60, 0x80, 0x4a, 0x00, 0x00, 0x80, 0x46, 
0x00, 0x00, 0x90, 0x43, 0x64, 0x00, 0x90, 0x45, 0x64, 0x83, 0x60, 0x80, 0x43, 0x00, 0x00, 0x80, 
0x45, 0x00, 0x00, 0x90, 0x4a, 0x64, 0x00, 0x90, 0x4a, 0x64, 0x83, 0x60, 0x80, 0x4a, 0x00, 0x00, 
0x90, 0x43, 0x64, 0x83, 0x60, 0x80, 0x43, 0x00, 0x00, 0x80, 0x4a, 0x00, 0x00, 0x90, 0x4a, 0x64, 
0x00, 0x90, 0x4a, 0x64, 0x83, 0x60, 0x80, 0x4a, 0x00, 0x00, 0x80, 0x4a, 0x00, 0x00, 0x90, 0x43, 
0x64, 0x00, 0x90, 0x43, 0x64, 0x83, 0x60, 0x80, 0x43, 0x00, 0x00, 0x80, 0x43, 0x00, 0x00, 0x90, 
0x4a, 0x64, 0x00, 0x90, 0x43, 0x64, 0x83, 0x60, 0x80, 0x4a, 0x00, 0x00, 0x90, 0x43, 0x64, 0x83, 
0x60, 0x80, 0x43, 0x00, 0x00, 0x80, 0x43, 0x00, 0x00, 0x90, 0x4a, 0x64, 0x00, 0x90, 0x45, 0x64, 
0x83, 0x60, 0x80, 0x4a, 0x00, 0x00, 0x80, 0x45, 0x00, 0x00, 0x90, 0x43, 0x64, 0x00, 0x90, 0x46, 
0x64, 0x83, 0x60, 0x80, 0x43, 0x00, 0x00, 0x90, 0x4a, 0x64, 0x83, 0x60, 0x80, 0x4a, 0x00, 0x00, 
0x80, 0x46, 0x00, 0x00, 0x90, 0x3f, 0x64, 0x00, 0x90, 0x4a, 0x64, 0x83, 0x60, 0x80, 0x3f, 0x00, 
0x00, 0x80, 0x4a, 0x00, 0x00, 0x90, 0x46, 0x64, 0x00, 0x90, 0x4a, 0x64, 0x83, 0x60, 0x80, 0x46, 
0x00, 0x00, 0x80, 0x4a, 0x00, 0x00, 0x90, 0x3f, 0x64, 0x00, 0x90, 0x48, 0x64, 0x83, 0x60, 0x80, 
0x3f, 0x00, 0x00, 0x90, 0x46, 0x64, 0x83, 0x60, 0x80, 0x46, 0x00, 0x00, 0x80, 0x48, 0x00, 0x00, 
0x90, 0x3f, 0x64, 0x00, 0x90, 0x46, 0x64, 0x83, 0x60, 0x80, 0x3f, 0x00, 0x00, 0x90, 0x46, 0x64, 
0x83, 0x60, 0x80, 0x46, 0x00, 0x00, 0x80, 0x46, 0x00, 0x00, 0x90, 0x3f, 0x64, 0x00, 0x90, 0x45, 
0x64, 0x83, 0x60, 0x80, 0x3f, 0x00, 0x00, 0x80, 0x45, 0x00, 0x00, 0x90, 0x41, 0x64, 0x00, 0x90, 
0x4a, 0x64, 0x87, 0x40, 0x80, 0x41, 0x00, 0x00, 0x80, 0x4a, 0x00, 0x00, 0x90, 0x48, 0x64, 0x00, 
0x90, 0x4a, 0x64, 0x83, 0x60, 0x80, 0x48, 0x00, 0x00, 0x80, 0x4a, 0x00, 0x00, 0x90, 0x41, 0x64, 
0x00, 0x90, 0x48, 0x64, 0x83, 0x60, 0x80, 0x41, 0x00, 0x00, 0x90, 0x48, 0x64, 0x83, 0x60, 0x80, 
0x48, 0x00, 0x00, 0x80, 0x48, 0x00, 0x00, 0x90, 0x41, 0x64, 0x00, 0x90, 0x46, 0x64, 0x83, 0x60, 
0x80, 0x41, 0x00, 0x00, 0x80, 0x46, 0x00, 0x00, 0x90, 0x48, 0x64, 0x00, 0x90, 0x45, 0x64, 0x83, 
0x60, 0x80, 0x48, 0x00, 0x00, 0x90, 0x41, 0x64, 0x83, 0x60, 0x80, 0x41, 0x00, 0x00, 0x90, 0x48, 
0x64, 0x83, 0x60, 0x80, 0x48, 0x00, 0x00, 0x80, 0x45, 0x00, 0x00, 0x90, 0x43, 0x64, 0x00, 0x90, 
0x4a, 0x64, 0x83, 0x60, 0x80, 0x43, 0x00, 0x00, 0x80, 0x4a, 0x00, 0x00, 0x90, 0x4a, 0x64, 0x00, 
0x90, 0x4a, 0x64, 0x83, 0x60, 0x80, 0x4a, 0x00, 0x00, 0x80, 0x4a, 0x00, 0x00, 0x90, 0x43, 0x64, 
0x00, 0x90, 0x48, 0x64, 0x83, 0x60, 0x80, 0x43, 0x00, 0x00, 0x90, 0x4a, 0x64, 0x83, 0x60, 0x80, 
0x4a, 0x00, 0x00, 0x80, 0x48, 0x00, 0x00, 0x90, 0x43, 0x64, 0x00, 0x90, 0x46, 0x64, 0x83, 0x60, 
0x80, 0x43, 0x00, 0x00, 0x90, 0x4a, 0x64, 0x83, 0x60, 0x80, 0x4a, 0x00, 0x00, 0x80, 0x46, 0x00, 
0x00, 0x90, 0x43, 0x64, 0x00, 0x90, 0x45, 0x64, 0x83, 0x60, 0x80, 0x43, 0x00, 0x00, 0x80, 0x45, 
0x00, 0x00, 0x90, 0x4a, 0x64, 0x00, 0x90, 0x4a, 0x64, 0x83, 0x60, 0x80, 0x4a, 0x00, 0x00, 0x90, 
0x43, 0x64, 0x83, 0x60, 0x80, 0x43, 0x00, 0x00, 0x80, 0x4a, 0x00, 0x00, 0x90, 0x4a, 0x64, 0x00, 
0x90, 0x4a, 0x64, 0x83, 0x60, 0x80, 0x4a, 0x00, 0x00, 0x80, 0x4a, 0x00, 0x00, 0x90, 0x43, 0x64, 
0x00, 0x90, 0x4f, 0x64, 0x83, 0x60, 0x80, 0x43, 0x00, 0x00, 0x90, 0x4a, 0x64, 0x83, 0x60, 0x80, 
0x4a, 0x00, 0x00, 0x80, 0x4f, 0x00, 0x00, 0x90, 0x43, 0x64, 0x00, 0x90, 0x51, 0x64, 0x83, 0x60, 
0x80, 0x43, 0x00, 0x00, 0x90, 0x4a, 0x64, 0x83, 0x60, 0x80, 0x4a, 0x00, 0x00, 0x80, 0x51, 0x00, 
0x00, 0x90, 0x43, 0x64, 0x00, 0x90, 0x52, 0x64, 0x83, 0x60, 0x80, 0x43, 0x00, 0x00, 0x80, 0x52, 
0x00, 0x00, 0x90, 0x3f, 0x64, 0x00, 0x90, 0x52, 0x64, 0x87, 0x40, 0x80, 0x3f, 0x00, 0x00, 0x80, 
0x52, 0x00, 0x00, 0x90, 0x46, 0x64, 0x00, 0x90, 0x52, 0x64, 0x83, 0x60, 0x80, 0x46, 0x00, 0x00, 
0x80, 0x52, 0x00, 0x00, 0x90, 0x3f, 0x64, 0x00, 0x90, 0x51, 0x64, 0x83, 0x60, 0x80, 0x3f, 0x00, 
0x00, 0x90, 0x46, 0x64, 0x83, 0x60, 0x80, 0x46, 0x00, 0x00, 0x80, 0x51, 0x00, 0x00, 0x90, 0x3f, 
0x64, 0x00, 0x90, 0x4f, 0x64, 0x83, 0x60, 0x80, 0x3f, 0x00, 0x00, 0x90, 0x46, 0x64, 0x83, 0x60, 
0x80, 0x46, 0x00, 0x00, 0x80, 0x4f, 0x00, 0x00, 0x90, 0x3f, 0x64, 0x00, 0x90, 0x4d, 0x64, 0x83, 
0x60, 0x80, 0x3f, 0x00, 0x00, 0x80, 0x4d, 0x00, 0x00, 0x90, 0x42, 0x64, 0x00, 0x90, 0x54, 0x64, 
0x87, 0x40, 0x80, 0x42, 0x00, 0x00, 0x80, 0x54, 0x00, 0x00, 0x90, 0x48, 0x64, 0x00, 0x90, 0x54, 
0x64, 0x83, 0x60, 0x80, 0x48, 0x00, 0x00, 0x80, 0x54, 0x00, 0x00, 0x90, 0x42, 0x64, 0x00, 0x90, 
0x52, 0x64, 0x83, 0x60, 0x80, 0x42, 0x00, 0x00, 0x90, 0x48, 0x64, 0x83, 0x60, 0x80, 0x48, 0x00, 
0x00, 0x80, 0x52, 0x00, 0x00, 0x90, 0x42, 0x64, 0x00, 0x90, 0x51, 0x64, 0x83, 0x60, 0x80, 0x42, 
0x00, 0x00, 0x80, 0x51, 0x00, 0x00, 0x90, 0x48, 0x64, 0x00, 0x90, 0x4e, 0x64, 0x83, 0x60, 0x80, 
0x48, 0x00, 0x00, 0x90, 0x42, 0x64, 0x83, 0x60, 0x80, 0x42, 0x00, 0x00, 0x80, 0x4e, 0x00, 0x00, 
0x90, 0x48, 0x64, 0x00, 0x90, 0x48, 0x64, 0x83, 0x60, 0x80, 0x48, 0x00, 0x00, 0x80, 0x48, 0x00, 
0x00, 0x90, 0x43, 0x64, 0x00, 0x90, 0x4a, 0x64, 0x83, 0x60, 0x80, 0x43, 0x00, 0x00, 0x80, 0x4a, 
0x00, 0x00, 0x90, 0x4a, 0x64, 0x00, 0x90, 0x4a, 0x64, 0x83, 0x60, 0x80, 0x4a, 0x00, 0x00, 0x80, 
0x4a, 0x00, 0x00, 0x90, 0x43, 0x64, 0x00, 0x90, 0x48, 0x64, 0x83, 0x60, 0x80, 0x43, 0x00, 0x00, 
0x90, 0x4a, 0x64, 0x83, 0x60, 0x80, 0x4a, 0x00, 0x00, 0x80, 0x48, 0x00, 0x00, 0x90, 0x43, 0x64, 
0x00, 0x90, 0x46, 0x64, 0x83, 0x60, 0x80, 0x43, 0x00, 0x00, 0x90, 0x4a, 0x64, 0x83, 0x60, 0x80, 
0x4a, 0x00, 0x00, 0x80, 0x46, 0x00, 0x00, 0x90, 0x43, 0x64, 0x00, 0x90, 0x45, 0x64, 0x83, 0x60, 
0x80, 0x43, 0x00, 0x00, 0x80, 0x45, 0x00, 0x00, 0x90, 0x4a, 0x64, 0x00, 0x90, 0x46, 0x64, 0x83, 
0x60, 0x80, 0x4a, 0x00, 0x00, 0x90, 0x43, 0x64, 0x83, 0x60, 0x80, 0x43, 0x00, 0x00, 0x90, 0x4a, 
0x64, 0x83, 0x60, 0x80, 0x4a, 0x00, 0x00, 0x90, 0x43, 0x64, 0x83, 0x60, 0x80, 0x43, 0x00, 0x00, 
0x90, 0x4a, 0x64, 0x83, 0x60, 0x80, 0x4a, 0x00, 0x00, 0x90, 0x43, 0x64, 0x83, 0x60, 0x80, 0x43, 
0x00, 0x00, 0x90, 0x4a, 0x64, 0x83, 0x60, 0x80, 0x4a, 0x00, 0x00, 0x90, 0x43, 0x64, 0x83, 0x60, 
0x80, 0x43, 0x00, 0x00, 0x90, 0x4a, 0x64, 0x83, 0x60, 0x80, 0x4a, 0x00, 0x00, 0x80, 0x46, 0x00, 
0x00, 0xff, 0x2f, 0x00,
};

